STARTFONT 2.1
FONT -Monotype-Bookman Old Style-Bold-I-Normal--18-180-75-75-P-109-iso8859-4
SIZE 18 75 75
FONTBOUNDINGBOX 30 22 -4 -5

STARTPROPERTIES 24
FOUNDRY "Monotype"
FAMILY_NAME "Bookman Old Style"
WEIGHT_NAME "Bold"
SLANT "I"
SETWIDTH_NAME "Normal"
ADD_STYLE_NAME ""
PIXEL_SIZE 18
POINT_SIZE 180
RESOLUTION_X 75
RESOLUTION_Y 75
SPACING "P"
AVERAGE_WIDTH 109
CHARSET_REGISTRY "iso8859"
CHARSET_ENCODING "4"
FACE_NAME "Bookman Old Style Bold Italic ISO Latin4"
_DEC_DEVICE_FONTNAMES "PS=bookmanoldstyle-bit-lat4"
COPYRIGHT "Copyright (c) 1994 Monotype Typography Ltd."
CAP_HEIGHT 15
X_HEIGHT 11
WEIGHT 10
QUAD_WIDTH 13
DEFAULT_CHAR 160
FONT_DESCENT 5
FONT_ASCENT 18
ENDPROPERTIES

CHARS 191

STARTCHAR space
ENCODING 32
SWIDTH 340 0
DWIDTH 6 0
BBX 0 0 0 0
BITMAP
ENDCHAR

STARTCHAR exclam
ENCODING 33
SWIDTH 320 0
DWIDTH 6 0
BBX 5 14 2 0
BITMAP
18
18
38
38
38
30
70
70
60
60
00
E0
E0
E0
ENDCHAR

STARTCHAR quotedbl
ENCODING 34
SWIDTH 380 0
DWIDTH 7 0
BBX 6 5 3 8
BITMAP
44
CC
CC
88
88
ENDCHAR

STARTCHAR numbersign
ENCODING 35
SWIDTH 600 0
DWIDTH 11 0
BBX 9 13 1 0
BITMAP
1B00
1B00
1B00
1B00
7F80
7F80
3600
FF80
FF80
3600
3600
3600
3600
ENDCHAR

STARTCHAR dollar
ENCODING 36
SWIDTH 680 0
DWIDTH 13 0
BBX 11 17 2 -2
BITMAP
0600
0600
1EC0
3FC0
78E0
7060
7C60
3F00
1FC0
07E0
C1E0
C0E0
E1E0
7FC0
6F80
0C00
0C00
ENDCHAR

STARTCHAR percent
ENCODING 37
SWIDTH 880 0
DWIDTH 17 0
BBX 15 13 2 0
BITMAP
3C0C
6618
E630
C660
CEC0
CD80
793C
0366
06E6
0CC6
18CE
30CC
6078
ENDCHAR

STARTCHAR ampersand
ENCODING 38
SWIDTH 980 0
DWIDTH 19 0
BBX 17 13 2 0
BITMAP
038000
0FC000
1CE000
1CC000
0F9F00
3F1E00
738C00
E1D900
E1F380
E0E380
F1F380
7FFF00
3F3C00
ENDCHAR

STARTCHAR quoteright
ENCODING 39
SWIDTH 320 0
DWIDTH 6 0
BBX 4 6 2 8
BITMAP
30
70
70
30
60
C0
ENDCHAR

STARTCHAR parenleft
ENCODING 40
SWIDTH 260 0
DWIDTH 5 0
BBX 5 18 1 -4
BITMAP
08
18
38
30
30
70
70
60
E0
E0
E0
E0
E0
60
60
70
30
10
ENDCHAR

STARTCHAR parenright
ENCODING 41
SWIDTH 260 0
DWIDTH 5 0
BBX 5 18 1 -4
BITMAP
40
60
70
30
30
38
38
38
38
38
30
70
70
60
60
E0
C0
80
ENDCHAR

STARTCHAR asterisk
ENCODING 42
SWIDTH 460 0
DWIDTH 9 0
BBX 7 7 3 6
BITMAP
18
D8
F6
3E
38
6C
6C
ENDCHAR

STARTCHAR plus
ENCODING 43
SWIDTH 600 0
DWIDTH 11 0
BBX 10 10 2 1
BITMAP
0C00
0C00
0C00
0C00
FFC0
FFC0
0C00
0C00
0C00
0C00
ENDCHAR

STARTCHAR comma
ENCODING 44
SWIDTH 340 0
DWIDTH 6 0
BBX 4 6 1 -3
BITMAP
30
70
70
30
60
C0
ENDCHAR

STARTCHAR minus
ENCODING 45
SWIDTH 600 0
DWIDTH 11 0
BBX 9 2 3 5
BITMAP
FF80
FF80
ENDCHAR

STARTCHAR period
ENCODING 46
SWIDTH 340 0
DWIDTH 6 0
BBX 3 3 2 0
BITMAP
E0
E0
E0
ENDCHAR

STARTCHAR slash
ENCODING 47
SWIDTH 360 0
DWIDTH 7 0
BBX 11 18 -1 -4
BITMAP
0060
00E0
00C0
01C0
0180
0380
0300
0700
0600
0E00
0C00
1C00
1800
3800
3000
7000
6000
E000
ENDCHAR

STARTCHAR zero
ENCODING 48
SWIDTH 680 0
DWIDTH 13 0
BBX 12 13 2 0
BITMAP
07C0
1FE0
3CF0
7870
7070
F070
E070
E0F0
E0E0
E1E0
F3C0
7F80
3E00
ENDCHAR

STARTCHAR one
ENCODING 49
SWIDTH 680 0
DWIDTH 13 0
BBX 9 13 3 0
BITMAP
0300
1F00
1F00
0700
0700
0E00
0E00
0E00
1C00
1C00
1C00
FF80
FF80
ENDCHAR

STARTCHAR two
ENCODING 50
SWIDTH 680 0
DWIDTH 13 0
BBX 12 14 1 -1
BITMAP
0FC0
1FE0
38F0
3070
3070
00F0
01E0
0380
0F00
1C30
7FE0
FFE0
FFE0
0060
ENDCHAR

STARTCHAR three
ENCODING 51
SWIDTH 680 0
DWIDTH 13 0
BBX 12 13 1 0
BITMAP
0FE0
1FF0
38F0
3070
00E0
0780
07C0
01E0
60E0
E0E0
F1E0
7FC0
1F00
ENDCHAR

STARTCHAR four
ENCODING 52
SWIDTH 680 0
DWIDTH 13 0
BBX 12 13 2 0
BITMAP
00E0
03E0
07E0
0EE0
3CE0
71C0
C1C0
FFF0
FFF0
0380
0380
0380
0380
ENDCHAR

STARTCHAR five
ENCODING 53
SWIDTH 680 0
DWIDTH 13 0
BBX 12 14 2 0
BITMAP
0030
1FF0
1FF0
1FE0
3800
3000
3F80
7FC0
01E0
40E0
E0E0
F1E0
7FC0
1F80
ENDCHAR

STARTCHAR six
ENCODING 54
SWIDTH 680 0
DWIDTH 13 0
BBX 12 13 2 0
BITMAP
03F0
0FF0
3E00
7000
7F80
FFC0
F1E0
E0E0
E0E0
E0E0
71C0
7FC0
1F00
ENDCHAR

STARTCHAR seven
ENCODING 55
SWIDTH 680 0
DWIDTH 13 0
BBX 11 14 4 0
BITMAP
6000
7FE0
FFE0
C1C0
C380
0700
0E00
0E00
1C00
3800
3800
7000
7000
F000
ENDCHAR

STARTCHAR eight
ENCODING 56
SWIDTH 680 0
DWIDTH 13 0
BBX 12 13 2 0
BITMAP
0FC0
1FE0
3870
3870
3CE0
1FC0
3FC0
79E0
F0E0
E0E0
E1E0
7FC0
3F00
ENDCHAR

STARTCHAR nine
ENCODING 57
SWIDTH 680 0
DWIDTH 13 0
BBX 12 13 1 0
BITMAP
0F80
3FE0
38E0
7070
7070
7070
78F0
3FF0
1FE0
00E0
07C0
FF00
FC00
ENDCHAR

STARTCHAR colon
ENCODING 58
SWIDTH 340 0
DWIDTH 6 0
BBX 4 9 2 0
BITMAP
70
70
70
00
00
00
E0
E0
E0
ENDCHAR

STARTCHAR semicolon
ENCODING 59
SWIDTH 340 0
DWIDTH 6 0
BBX 5 12 1 -3
BITMAP
38
38
38
00
00
00
30
70
70
30
60
C0
ENDCHAR

STARTCHAR less
ENCODING 60
SWIDTH 620 0
DWIDTH 12 0
BBX 9 10 3 1
BITMAP
0080
0180
0F00
3C00
F000
F000
3C00
0F00
0180
0080
ENDCHAR

STARTCHAR equal
ENCODING 61
SWIDTH 600 0
DWIDTH 11 0
BBX 9 6 3 3
BITMAP
FF80
FF80
0000
0000
FF80
FF80
ENDCHAR

STARTCHAR greater
ENCODING 62
SWIDTH 620 0
DWIDTH 12 0
BBX 9 10 3 1
BITMAP
8000
C000
7800
1E00
0780
0780
1E00
7800
C000
8000
ENDCHAR

STARTCHAR question
ENCODING 63
SWIDTH 620 0
DWIDTH 12 0
BBX 10 14 3 0
BITMAP
3E00
FF80
E3C0
C1C0
01C0
01C0
03C0
3F80
7E00
6000
0000
E000
E000
E000
ENDCHAR

STARTCHAR at
ENCODING 64
SWIDTH 780 0
DWIDTH 16 0
BBX 17 17 0 -4
BITMAP
03F000
0C0C00
100200
200200
41B100
435100
867100
866100
8C6100
8CE200
8D4400
8ECC80
4C7100
200200
300400
0C1800
03E000
ENDCHAR

STARTCHAR A
ENCODING 65
SWIDTH 720 0
DWIDTH 14 0
BBX 14 13 0 0
BITMAP
00E0
00E0
01E0
03F0
0370
0670
0E70
0FF8
1FF8
1838
3838
FC7C
FC7C
ENDCHAR

STARTCHAR B
ENCODING 66
SWIDTH 720 0
DWIDTH 14 0
BBX 14 13 1 0
BITMAP
3FF8
3FFC
0E1C
0E1C
0E38
1FE0
1FF0
1C78
3838
3838
3878
FFF0
FFC0
ENDCHAR

STARTCHAR C
ENCODING 67
SWIDTH 700 0
DWIDTH 13 0
BBX 13 13 1 0
BITMAP
07B0
1FF0
3E38
7818
7018
F000
E000
E000
E000
7030
7C70
3FE0
0F80
ENDCHAR

STARTCHAR D
ENCODING 68
SWIDTH 760 0
DWIDTH 15 0
BBX 15 13 0 0
BITMAP
3FF0
3FFC
0E1E
0E0E
0E0E
1C0E
1C0E
1C1E
381C
383C
38F8
FFF0
FFC0
ENDCHAR

STARTCHAR E
ENCODING 69
SWIDTH 720 0
DWIDTH 14 0
BBX 15 13 0 0
BITMAP
3FFC
3FFE
0E0E
0E66
0E60
1FE0
1FC0
1CC0
38C0
380C
381C
FFFC
FFF8
ENDCHAR

STARTCHAR F
ENCODING 70
SWIDTH 660 0
DWIDTH 13 0
BBX 15 13 0 0
BITMAP
3FFC
3FFE
0E0E
0E66
0E60
1FE0
1FC0
1CC0
38C0
3800
3800
FE00
FE00
ENDCHAR

STARTCHAR G
ENCODING 71
SWIDTH 760 0
DWIDTH 14 0
BBX 14 13 1 0
BITMAP
07B0
1FF0
3C38
7818
7018
F000
E0FC
E0FC
E070
7070
78F0
3FF0
0F60
ENDCHAR

STARTCHAR H
ENCODING 72
SWIDTH 800 0
DWIDTH 15 0
BBX 17 13 0 0
BITMAP
3FBF80
3FBF80
0E0E00
0E0E00
0E0E00
1FFC00
1FFC00
1C1C00
383800
383800
383800
FEFE00
FEFE00
ENDCHAR

STARTCHAR I
ENCODING 73
SWIDTH 380 0
DWIDTH 7 0
BBX 9 13 0 0
BITMAP
3F80
3F80
0E00
0E00
0E00
1C00
1C00
1C00
3800
3800
3800
FE00
FE00
ENDCHAR

STARTCHAR J
ENCODING 74
SWIDTH 620 0
DWIDTH 12 0
BBX 13 13 1 0
BITMAP
03F8
03F8
00E0
00E0
00E0
01C0
01C0
41C0
E380
E380
E380
7F00
3E00
ENDCHAR

STARTCHAR K
ENCODING 75
SWIDTH 780 0
DWIDTH 15 0
BBX 16 13 0 0
BITMAP
3FBF
3FBF
0E1C
0E38
0E70
1DE0
1FE0
1E70
3C78
3838
383C
FE7E
FE7E
ENDCHAR

STARTCHAR L
ENCODING 76
SWIDTH 640 0
DWIDTH 12 0
BBX 12 13 0 0
BITMAP
3F80
3F80
0E00
0E00
0E00
1C00
1C00
1C00
3800
3830
3870
FFE0
FFE0
ENDCHAR

STARTCHAR M
ENCODING 77
SWIDTH 860 0
DWIDTH 16 0
BBX 18 13 0 0
BITMAP
3C1FC0
3C1FC0
1C3F00
1C3700
1E7700
366E00
36EE00
36CE00
67DC00
679C00
671C00
F77F00
F67F00
ENDCHAR

STARTCHAR N
ENCODING 78
SWIDTH 740 0
DWIDTH 14 0
BBX 16 13 0 0
BITMAP
3E3F
3E3F
0F0C
0F0C
0F8C
1B98
19D8
19D8
31F0
30F0
30F0
FC60
FC60
ENDCHAR

STARTCHAR O
ENCODING 79
SWIDTH 760 0
DWIDTH 14 0
BBX 13 13 1 0
BITMAP
0780
1FE0
3CF0
7070
7038
E038
E038
E038
E070
7070
79E0
3FC0
0F00
ENDCHAR

STARTCHAR P
ENCODING 80
SWIDTH 640 0
DWIDTH 12 0
BBX 13 13 0 0
BITMAP
3FC0
3FF0
0E78
0E38
0E38
1C78
1FF0
1FC0
3800
3800
3800
FE00
FE00
ENDCHAR

STARTCHAR Q
ENCODING 81
SWIDTH 760 0
DWIDTH 14 0
BBX 13 17 1 -4
BITMAP
0780
1FE0
3CF0
7070
7038
E038
E038
E038
E070
7070
79E0
3FC0
0F80
0E00
0E40
07E0
03C0
ENDCHAR

STARTCHAR R
ENCODING 82
SWIDTH 740 0
DWIDTH 15 0
BBX 15 13 0 0
BITMAP
3FF8
3FFC
0E1E
0E0E
0E1C
1FF8
1FE0
1CF0
3870
3878
3838
FE3E
FE1E
ENDCHAR

STARTCHAR S
ENCODING 83
SWIDTH 700 0
DWIDTH 13 0
BBX 12 13 1 0
BITMAP
0F60
3FE0
7870
7030
7C30
3F80
1FE0
07F0
C0F0
C070
E0F0
7FE0
6F80
ENDCHAR

STARTCHAR T
ENCODING 84
SWIDTH 700 0
DWIDTH 13 0
BBX 13 14 2 0
BITMAP
6030
7FF0
7FF0
E738
C718
4710
0E00
0E00
0E00
1C00
1C00
1C00
7F00
7F00
ENDCHAR

STARTCHAR U
ENCODING 85
SWIDTH 740 0
DWIDTH 14 0
BBX 14 13 2 0
BITMAP
FEFC
FEFC
3830
3830
3830
7060
7060
7060
E0C0
E0C0
E1C0
FF80
7E00
ENDCHAR

STARTCHAR V
ENCODING 86
SWIDTH 660 0
DWIDTH 12 0
BBX 12 13 2 0
BITMAP
F9F0
F9F0
70E0
70C0
71C0
7180
3B00
3B00
3E00
3E00
1C00
1C00
1800
ENDCHAR

STARTCHAR W
ENCODING 87
SWIDTH 1000 0
DWIDTH 19 0
BBX 19 13 2 0
BITMAP
F9F3E0
F9F3E0
70E180
70E380
70E300
71E600
73EE00
3BEC00
3EF800
3CF800
387000
306000
306000
ENDCHAR

STARTCHAR X
ENCODING 88
SWIDTH 740 0
DWIDTH 14 0
BBX 16 13 0 0
BITMAP
1FBF
1FBF
0F1C
0718
03B0
01E0
03C0
07E0
0EF0
1C70
3838
FCFE
FCFE
ENDCHAR

STARTCHAR Y
ENCODING 89
SWIDTH 660 0
DWIDTH 12 0
BBX 12 13 2 0
BITMAP
F9F0
F9F0
70E0
70C0
3980
3B00
1E00
1C00
1C00
3800
3800
FE00
FE00
ENDCHAR

STARTCHAR Z
ENCODING 90
SWIDTH 680 0
DWIDTH 13 0
BBX 14 13 1 0
BITMAP
0FFC
1FFC
3C78
30F0
01E0
03C0
0780
0F00
1E00
3C30
78F0
FFE0
FFC0
ENDCHAR

STARTCHAR bracketleft
ENCODING 91
SWIDTH 260 0
DWIDTH 5 0
BBX 8 18 0 -4
BITMAP
1F
1F
1C
1C
38
38
38
38
38
70
70
70
70
70
E0
E0
F8
F8
ENDCHAR

STARTCHAR backslash
ENCODING 92
SWIDTH 580 0
DWIDTH 11 0
BBX 11 18 0 -4
BITMAP
E000
6000
7000
3000
3800
1800
1C00
0C00
0E00
0600
0700
0300
0380
0180
01C0
00C0
00E0
0060
ENDCHAR

STARTCHAR bracketright
ENCODING 93
SWIDTH 260 0
DWIDTH 5 0
BBX 8 18 -1 -4
BITMAP
1F
1F
07
07
07
0E
0E
0E
0E
1C
1C
1C
1C
1C
38
38
F8
F8
ENDCHAR

STARTCHAR asciicircum
ENCODING 94
SWIDTH 620 0
DWIDTH 12 0
BBX 9 8 3 5
BITMAP
1C00
1C00
3E00
3600
6600
6300
C300
C180
ENDCHAR

STARTCHAR underscore
ENCODING 95
SWIDTH 500 0
DWIDTH 10 0
BBX 10 1 0 -2
BITMAP
FFC0
ENDCHAR

STARTCHAR quoteleft
ENCODING 96
SWIDTH 320 0
DWIDTH 6 0
BBX 4 6 3 8
BITMAP
30
60
C0
E0
E0
C0
ENDCHAR

STARTCHAR a
ENCODING 97
SWIDTH 680 0
DWIDTH 13 0
BBX 13 9 1 0
BITMAP
0F60
3FE0
78E0
71C0
E1C0
E3C0
E7D0
FFF8
7CF0
ENDCHAR

STARTCHAR b
ENCODING 98
SWIDTH 600 0
DWIDTH 11 0
BBX 10 14 1 0
BITMAP
1C00
7C00
7800
3800
3800
7780
7FC0
79C0
71C0
E1C0
E380
E380
FF00
DC00
ENDCHAR

STARTCHAR c
ENCODING 99
SWIDTH 560 0
DWIDTH 11 0
BBX 10 9 1 0
BITMAP
0F00
3F80
79C0
F080
E000
E000
F180
7F80
3F00
ENDCHAR

STARTCHAR d
ENCODING 100
SWIDTH 680 0
DWIDTH 13 0
BBX 13 14 1 0
BITMAP
0038
00F8
00F0
0070
0070
0EE0
3FE0
78E0
70E0
F1C0
E3C0
E7D0
FDF8
78F0
ENDCHAR

STARTCHAR e
ENCODING 101
SWIDTH 560 0
DWIDTH 11 0
BBX 10 9 1 0
BITMAP
0F80
3FC0
71C0
E3C0
FF80
FC00
E180
7F80
3F00
ENDCHAR

STARTCHAR f
ENCODING 102
SWIDTH 420 0
DWIDTH 8 0
BBX 15 18 -3 -4
BITMAP
007C
00FE
01EC
01C0
01C0
07F0
07F0
0380
0380
0380
0380
0700
0700
0700
0700
6E00
FE00
7800
ENDCHAR

STARTCHAR g
ENCODING 103
SWIDTH 620 0
DWIDTH 12 0
BBX 12 13 0 -4
BITMAP
0770
1FF0
3CE0
38E0
70E0
71E0
73C0
7FC0
3DC0
0180
E380
FF00
7C00
ENDCHAR

STARTCHAR h
ENCODING 104
SWIDTH 700 0
DWIDTH 13 0
BBX 13 14 1 0
BITMAP
1C00
7C00
7800
3800
3800
3BC0
77E0
7CE0
78E0
70E0
E1C0
E1D0
E1F8
E0F0
ENDCHAR

STARTCHAR i
ENCODING 105
SWIDTH 380 0
DWIDTH 7 0
BBX 5 14 2 0
BITMAP
38
38
38
00
00
38
F8
F0
70
70
E0
E8
F8
70
ENDCHAR

STARTCHAR j
ENCODING 106
SWIDTH 320 0
DWIDTH 6 0
BBX 10 18 -3 -4
BITMAP
01C0
01C0
01C0
0000
0000
01C0
07C0
0780
0380
0380
0380
0700
0700
0700
0600
CE00
FC00
7800
ENDCHAR

STARTCHAR k
ENCODING 107
SWIDTH 700 0
DWIDTH 13 0
BBX 13 14 1 0
BITMAP
1C00
7C00
7800
3800
3800
38F0
73F8
7718
7F00
7F80
F380
E1D0
E1F8
E0F0
ENDCHAR

STARTCHAR l
ENCODING 108
SWIDTH 380 0
DWIDTH 7 0
BBX 6 14 2 0
BITMAP
1C
7C
78
38
38
38
70
70
70
E0
E0
E8
FC
78
ENDCHAR

STARTCHAR m
ENCODING 109
SWIDTH 960 0
DWIDTH 18 0
BBX 17 9 1 0
BITMAP
3BDC00
FFFE00
FDEE00
39CE00
39CE00
739C00
739D00
739F80
738F00
ENDCHAR

STARTCHAR n
ENCODING 110
SWIDTH 680 0
DWIDTH 13 0
BBX 12 9 2 0
BITMAP
3780
FFC0
F9C0
71C0
7180
E380
E3A0
E3F0
E1E0
ENDCHAR

STARTCHAR o
ENCODING 111
SWIDTH 600 0
DWIDTH 11 0
BBX 10 9 1 0
BITMAP
0F00
3F80
73C0
E1C0
E1C0
E1C0
F380
7F00
3C00
ENDCHAR

STARTCHAR p
ENCODING 112
SWIDTH 660 0
DWIDTH 13 0
BBX 13 13 0 -4
BITMAP
0EF0
3FF8
3E38
1C38
1C38
3870
38F0
3FE0
3B80
7000
7000
F800
F800
ENDCHAR

STARTCHAR q
ENCODING 113
SWIDTH 620 0
DWIDTH 11 0
BBX 11 13 1 -4
BITMAP
0F60
3FE0
79C0
F1C0
E1C0
E3C0
E780
FF80
7B80
0700
0700
0F80
0F80
ENDCHAR

STARTCHAR r
ENCODING 114
SWIDTH 500 0
DWIDTH 10 0
BBX 9 9 2 0
BITMAP
1B00
FF80
FB80
7000
7000
7000
E000
E000
E000
ENDCHAR

STARTCHAR s
ENCODING 115
SWIDTH 540 0
DWIDTH 10 0
BBX 9 9 1 0
BITMAP
1F00
3F80
7180
7C00
3F00
0780
C380
FF00
7E00
ENDCHAR

STARTCHAR t
ENCODING 116
SWIDTH 440 0
DWIDTH 8 0
BBX 7 12 2 0
BITMAP
18
38
38
FE
FE
70
70
E0
E0
E6
FC
78
ENDCHAR

STARTCHAR u
ENCODING 117
SWIDTH 680 0
DWIDTH 13 0
BBX 12 9 2 0
BITMAP
31C0
F1C0
F1C0
71C0
7380
E380
E3A0
FFF0
7DE0
ENDCHAR

STARTCHAR v
ENCODING 118
SWIDTH 540 0
DWIDTH 10 0
BBX 9 9 1 0
BITMAP
3300
F380
F380
7180
E380
E300
E700
FE00
7800
ENDCHAR

STARTCHAR w
ENCODING 119
SWIDTH 860 0
DWIDTH 16 0
BBX 15 9 1 0
BITMAP
31CC
F1CE
F1CE
71C6
E3CE
E38C
E79C
FDF8
79E0
ENDCHAR

STARTCHAR x
ENCODING 120
SWIDTH 620 0
DWIDTH 12 0
BBX 13 9 0 0
BITMAP
0C30
1E78
1EE0
0F80
0700
0F80
3B98
F1F8
E0F0
ENDCHAR

STARTCHAR y
ENCODING 121
SWIDTH 600 0
DWIDTH 11 0
BBX 12 13 -1 -4
BITMAP
0C70
3C70
3C70
1C70
1CE0
38E0
39E0
3EE0
1EC0
C1C0
E380
7F00
3C00
ENDCHAR

STARTCHAR z
ENCODING 122
SWIDTH 560 0
DWIDTH 11 0
BBX 11 9 1 0
BITMAP
1EE0
3FC0
7380
0F00
1E00
3C00
71C0
FFC0
CF80
ENDCHAR

STARTCHAR braceleft
ENCODING 123
SWIDTH 300 0
DWIDTH 6 0
BBX 7 18 0 -4
BITMAP
06
08
18
18
18
18
18
10
60
C0
20
30
30
30
30
30
10
0C
ENDCHAR

STARTCHAR bar
ENCODING 124
SWIDTH 620 0
DWIDTH 12 0
BBX 2 18 5 -4
BITMAP
C0
C0
C0
C0
C0
C0
C0
C0
C0
C0
C0
C0
C0
C0
C0
C0
C0
C0
ENDCHAR

STARTCHAR braceright
ENCODING 125
SWIDTH 300 0
DWIDTH 6 0
BBX 7 18 0 -4
BITMAP
60
10
18
18
18
18
18
08
06
0C
10
30
30
30
30
30
20
C0
ENDCHAR

STARTCHAR asciitilde
ENCODING 126
SWIDTH 620 0
DWIDTH 11 0
BBX 9 3 2 5
BITMAP
7980
FF80
CF00
ENDCHAR

STARTCHAR space
ENCODING 160
SWIDTH 340 0
DWIDTH 8 0
BBX 0 0 0 0
BITMAP
ENDCHAR

STARTCHAR Aogonek
ENCODING 161
SWIDTH 720 0
DWIDTH 14 0
BBX 15 16 0 -3
BITMAP
00E0
00E0
01E0
03F0
0370
0670
0E70
0FF8
1FF8
1838
3838
FC7C
FC7C
0018
0018
000E
ENDCHAR

STARTCHAR afii240
ENCODING 162
SWIDTH 500 0
DWIDTH 11 0
BBX 9 9 2 0
BITMAP
3380
F380
F700
7E00
7E00
F700
E700
E380
E380
ENDCHAR

STARTCHAR Rcommaaccent
ENCODING 163
SWIDTH 740 0
DWIDTH 15 0
BBX 15 18 0 -5
BITMAP
3FF8
3FFC
0E1E
0E0E
0E1C
1FF8
1FE0
1CF0
3870
3878
3838
FE3E
FE1E
0000
01C0
01C0
0180
0300
ENDCHAR

STARTCHAR currency
ENCODING 164
SWIDTH 680 0
DWIDTH 13 0
BBX 9 9 3 2
BITMAP
DD80
FF80
6300
C180
C180
C180
6300
FF80
DD80
ENDCHAR

STARTCHAR Itilde
ENCODING 165
SWIDTH 380 0
DWIDTH 7 0
BBX 9 17 0 0
BITMAP
1C80
3F80
2700
0000
3F80
3F80
0E00
0E00
0E00
1C00
1C00
1C00
3800
3800
3800
FE00
FE00
ENDCHAR

STARTCHAR Lcommaaccent
ENCODING 166
SWIDTH 640 0
DWIDTH 12 0
BBX 12 18 0 -5
BITMAP
3F80
3F80
0E00
0E00
0E00
1C00
1C00
1C00
1C00
3830
3870
FFE0
FFE0
0000
0E00
0E00
0C00
1800
ENDCHAR

STARTCHAR section
ENCODING 167
SWIDTH 620 0
DWIDTH 12 0
BBX 11 16 1 -3
BITMAP
0FC0
1FE0
38E0
3860
1F00
1FC0
37E0
70E0
78E0
3FC0
1F80
43C0
C1C0
E1C0
FF80
3E00
ENDCHAR

STARTCHAR hungarumlaut
ENCODING 168
SWIDTH 560 0
DWIDTH 11 0
BBX 10 3 3 11
BITMAP
39C0
7380
C600
ENDCHAR

STARTCHAR Scaron
ENCODING 169
SWIDTH 700 0
DWIDTH 13 0
BBX 12 17 1 0
BITMAP
0660
03C0
0180
0000
0F60
3FE0
7870
7030
7C30
3F80
1FE0
07F0
C0F0
C070
E0F0
7FE0
6F80
ENDCHAR

STARTCHAR Emacron
ENCODING 170
SWIDTH 720 0
DWIDTH 14 0
BBX 15 16 0 0
BITMAP
03F8
03F8
0000
3FFC
3FFE
0E0E
0E66
0E60
1FE0
1FC0
1CC0
38C0
380C
381C
FFFC
FFF8
ENDCHAR

STARTCHAR Gcommaaccent
ENCODING 171
SWIDTH 760 0
DWIDTH 14 0
BBX 14 18 1 -5
BITMAP
07B0
1FF0
3C38
7818
7018
F000
E0FC
E0FC
E070
7070
78F0
3FF0
0F60
0000
0700
0700
0600
0C00
ENDCHAR

STARTCHAR afii237
ENCODING 172
SWIDTH 611 0
DWIDTH 13 0
BBX 13 14 2 0
BITMAP
6030
7FF0
7FF0
E738
C718
4710
0E00
3F80
3F80
1C00
1C00
1C00
7F00
7F00
ENDCHAR

STARTCHAR hyphen
ENCODING 173
SWIDTH 280 0
DWIDTH 5 0
BBX 5 2 1 4
BITMAP
F8
F8
ENDCHAR

STARTCHAR Zcaron
ENCODING 174
SWIDTH 680 0
DWIDTH 13 0
BBX 14 17 1 0
BITMAP
0330
01E0
00C0
0000
0FFC
1FFC
3C78
30F0
01E0
03C0
0780
0F00
1E00
3C30
78F0
FFE0
FFC0
ENDCHAR

STARTCHAR macron
ENCODING 175
SWIDTH 480 0
DWIDTH 9 0
BBX 8 2 3 11
BITMAP
7F
FE
ENDCHAR

STARTCHAR degree
ENCODING 176
SWIDTH 400 0
DWIDTH 8 0
BBX 5 5 4 8
BITMAP
70
D8
88
D8
70
ENDCHAR

STARTCHAR aogonek
ENCODING 177
SWIDTH 680 0
DWIDTH 13 0
BBX 13 12 1 -3
BITMAP
0F60
3FE0
78E0
71C0
E1C0
E3C0
E7D0
FFF8
7CF0
0060
0060
0038
ENDCHAR

STARTCHAR ogonek
ENCODING 178
SWIDTH 320 0
DWIDTH 6 0
BBX 4 3 1 -3
BITMAP
C0
C0
70
ENDCHAR

STARTCHAR rcommaaccent
ENCODING 179
SWIDTH 500 0
DWIDTH 10 0
BBX 9 14 2 -5
BITMAP
1B00
FF80
FB80
7000
7000
7000
E000
E000
E000
0000
7000
7000
6000
C000
ENDCHAR

STARTCHAR acute
ENCODING 180
SWIDTH 340 0
DWIDTH 6 0
BBX 5 3 4 11
BITMAP
38
70
C0
ENDCHAR

STARTCHAR itilde
ENCODING 181
SWIDTH 380 0
DWIDTH 7 0
BBX 7 13 2 0
BITMAP
32
7E
4C
00
38
F8
F0
70
70
E0
E8
F8
70
ENDCHAR

STARTCHAR lcommaaccent
ENCODING 182
SWIDTH 380 0
DWIDTH 7 0
BBX 6 19 2 -5
BITMAP
1C
7C
78
38
38
38
70
70
70
E0
E0
E8
FC
78
00
70
70
60
C0
ENDCHAR

STARTCHAR caron
ENCODING 183
SWIDTH 480 0
DWIDTH 9 0
BBX 6 3 4 11
BITMAP
CC
78
30
ENDCHAR

STARTCHAR commaaccent
ENCODING 184
SWIDTH 333 0
DWIDTH 6 0
BBX 4 4 1 -5
BITMAP
70
70
60
C0
ENDCHAR

STARTCHAR scaron
ENCODING 185
SWIDTH 540 0
DWIDTH 10 0
BBX 9 13 1 0
BITMAP
1980
0F00
0600
0000
1F00
3F80
7180
7C00
3F00
0780
C380
FF00
7E00
ENDCHAR

STARTCHAR emacron
ENCODING 186
SWIDTH 560 0
DWIDTH 11 0
BBX 10 12 1 0
BITMAP
0FC0
0FC0
0000
0F80
3FC0
71C0
E3C0
FF80
FC00
E180
7F80
3F00
ENDCHAR

STARTCHAR gcommaaccent
ENCODING 187
SWIDTH 620 0
DWIDTH 12 0
BBX 12 18 0 -4
BITMAP
00C0
0180
0380
0380
0000
0770
1FF0
3CE0
38E0
70E0
71E0
73C0
7FC0
3DC0
0180
E380
FF00
7C00
ENDCHAR

STARTCHAR afii253
ENCODING 188
SWIDTH 278 0
DWIDTH 8 0
BBX 8 12 1 0
BITMAP
0C
1C
1C
7F
7F
38
FE
FE
70
73
7E
3C
ENDCHAR

STARTCHAR afii238
ENCODING 189
SWIDTH 775 0
DWIDTH 15 0
BBX 15 13 0 0
BITMAP
3F38
3F7C
0ECE
0F8E
0F0E
1C0E
1C0E
1C1C
381C
381C
39B8
FDF8
FCE0
ENDCHAR

STARTCHAR zcaron
ENCODING 190
SWIDTH 560 0
DWIDTH 11 0
BBX 11 13 1 0
BITMAP
0CC0
0780
0300
0000
1EE0
3FC0
7380
0F00
1E00
3C00
71C0
FFC0
CF80
ENDCHAR

STARTCHAR afii254
ENCODING 191
SWIDTH 477 0
DWIDTH 13 0
BBX 10 13 2 -4
BITMAP
3780
FFC0
F9C0
71C0
71C0
E380
E380
E380
E380
0700
6700
7E00
3E00
ENDCHAR

STARTCHAR Amacron
ENCODING 192
SWIDTH 720 0
DWIDTH 14 0
BBX 14 16 0 0
BITMAP
01F8
01F8
0000
00E0
00E0
01E0
03F0
0370
0670
0E70
0FF8
1FF8
1838
3838
FC7C
FC7C
ENDCHAR

STARTCHAR Aacute
ENCODING 193
SWIDTH 720 0
DWIDTH 14 0
BBX 14 17 0 0
BITMAP
001C
0038
0060
0000
00E0
00E0
01E0
03F0
0370
0670
0E70
0FF8
1FF8
1838
3838
FC7C
FC7C
ENDCHAR

STARTCHAR Acircumflex
ENCODING 194
SWIDTH 720 0
DWIDTH 14 0
BBX 14 17 0 0
BITMAP
0060
00F0
0198
0000
00E0
00E0
01E0
03F0
0370
0670
0E70
0FF8
1FF8
1838
3838
FC7C
FC7C
ENDCHAR

STARTCHAR Atilde
ENCODING 195
SWIDTH 720 0
DWIDTH 14 0
BBX 14 17 0 0
BITMAP
00E4
01FC
0138
0000
00E0
00E0
01E0
03F0
0370
0670
0E70
0FF8
1FF8
1838
3838
FC7C
FC7C
ENDCHAR

STARTCHAR Adieresis
ENCODING 196
SWIDTH 720 0
DWIDTH 14 0
BBX 14 17 0 0
BITMAP
039C
039C
039C
0000
00E0
00E0
01E0
03F0
0370
0670
0E70
0FF8
1FF8
1838
3838
FC7C
FC7C
ENDCHAR

STARTCHAR Aring
ENCODING 197
SWIDTH 720 0
DWIDTH 14 0
BBX 14 17 0 0
BITMAP
00E0
01B0
0110
01B0
00E0
00E0
01E0
03F0
0370
0670
0E70
0FF8
1FF8
1838
3838
FC7C
FC7C
ENDCHAR

STARTCHAR AE
ENCODING 198
SWIDTH 1140 0
DWIDTH 22 0
BBX 23 13 0 0
BITMAP
03FFFC
03FFFE
01CF0E
038E66
030E60
070FE0
0FFFE0
0FFCC0
1C1CC0
181C0C
381C1C
FC7FFC
FCFFF8
ENDCHAR

STARTCHAR Iogonek
ENCODING 199
SWIDTH 380 0
DWIDTH 7 0
BBX 9 16 0 -3
BITMAP
3F80
3F80
0E00
0E00
0E00
1C00
1C00
1C00
3800
3800
3800
FE00
FE00
1800
1800
0E00
ENDCHAR

STARTCHAR Ccaron
ENCODING 200
SWIDTH 700 0
DWIDTH 13 0
BBX 13 17 1 0
BITMAP
0660
03C0
0180
0000
07B0
1FF0
3E38
7818
7018
F000
E000
E000
E000
7030
7C70
3FE0
0F80
ENDCHAR

STARTCHAR Eacute
ENCODING 201
SWIDTH 720 0
DWIDTH 14 0
BBX 15 17 0 0
BITMAP
0038
0070
00C0
0000
3FFC
3FFE
0E0E
0E66
0E60
1FE0
1FC0
1CC0
38C0
380C
381C
FFFC
FFF8
ENDCHAR

STARTCHAR Eogonek
ENCODING 202
SWIDTH 720 0
DWIDTH 14 0
BBX 15 16 0 -3
BITMAP
3FFC
3FFE
0E0E
0E66
0E60
1FE0
1FC0
1CC0
38C0
380C
381C
FFFC
FFF8
0060
0060
0038
ENDCHAR

STARTCHAR Edieresis
ENCODING 203
SWIDTH 720 0
DWIDTH 14 0
BBX 15 17 0 0
BITMAP
0738
0738
0738
0000
3FFC
3FFE
0E0E
0E66
0E60
1FE0
1FC0
1CC0
38C0
380C
381C
FFFC
FFF8
ENDCHAR

STARTCHAR Edotaccent
ENCODING 204
SWIDTH 720 0
DWIDTH 14 0
BBX 15 17 0 0
BITMAP
0070
00E0
0180
0000
3FFC
3FFE
0E0E
0E66
0E60
1FE0
1FC0
1CC0
38C0
380C
381C
FFFC
FFF8
ENDCHAR

STARTCHAR Iacute
ENCODING 205
SWIDTH 380 0
DWIDTH 7 0
BBX 9 17 0 0
BITMAP
0380
0700
0C00
0000
3F80
3F80
0E00
0E00
0E00
1C00
1C00
1C00
3800
3800
3800
FE00
FE00
ENDCHAR

STARTCHAR Icircumflex
ENCODING 206
SWIDTH 380 0
DWIDTH 7 0
BBX 10 17 0 0
BITMAP
0300
0780
0CC0
0000
3F80
3F80
0E00
0E00
0E00
1C00
1C00
1C00
3800
3800
3800
FE00
FE00
ENDCHAR

STARTCHAR Imacron
ENCODING 207
SWIDTH 380 0
DWIDTH 7 0
BBX 9 16 0 0
BITMAP
1F80
1F80
0000
3F80
3F80
0E00
0E00
0E00
1C00
1C00
1C00
3800
3800
3800
FE00
FE00
ENDCHAR

STARTCHAR Eth
ENCODING 208
SWIDTH 760 0
DWIDTH 15 0
BBX 15 13 0 0
BITMAP
3FF0
3FFC
0E1E
0E0E
0E0E
3F8E
3F8E
1C1E
381C
383C
38F8
FFF0
FFC0
ENDCHAR

STARTCHAR Ncommaaccent
ENCODING 209
SWIDTH 740 0
DWIDTH 14 0
BBX 16 18 0 -5
BITMAP
3E3F
3E3F
0F0C
0F0C
0F8C
1B98
19D8
19D8
31F0
30F0
30F0
FC60
FC60
0000
0380
0380
0300
0600
ENDCHAR

STARTCHAR Omacron
ENCODING 210
SWIDTH 760 0
DWIDTH 14 0
BBX 13 16 1 0
BITMAP
07E0
07E0
0000
0780
1FE0
3CF0
7070
7038
E038
E038
E038
E070
7070
79E0
3FC0
0F00
ENDCHAR

STARTCHAR Kcommaaccent
ENCODING 211
SWIDTH 780 0
DWIDTH 15 0
BBX 16 18 0 -5
BITMAP
3FBF
3FBF
0E1C
0E38
0E70
1DE0
1FE0
1E70
3C78
3838
383C
FE7E
FE7E
0000
0380
0380
0300
0600
ENDCHAR

STARTCHAR Ocircumflex
ENCODING 212
SWIDTH 760 0
DWIDTH 14 0
BBX 13 17 1 0
BITMAP
0180
03C0
0660
0000
0780
1FE0
3CF0
7070
7038
E038
E038
E038
E070
7070
79E0
3FC0
0F00
ENDCHAR

STARTCHAR Otilde
ENCODING 213
SWIDTH 760 0
DWIDTH 14 0
BBX 13 17 1 0
BITMAP
0710
0FF0
08E0
0000
0780
1FE0
3CF0
7070
7038
E038
E038
E038
E070
7070
79E0
3FC0
0F00
ENDCHAR

STARTCHAR Odieresis
ENCODING 214
SWIDTH 760 0
DWIDTH 14 0
BBX 13 17 1 0
BITMAP
0E70
0E70
0E70
0000
0780
1FE0
3CF0
7070
7038
E038
E038
E038
E070
7070
79E0
3FC0
0F00
ENDCHAR

STARTCHAR multiply
ENCODING 215
SWIDTH 600 0
DWIDTH 11 0
BBX 9 9 3 2
BITMAP
4100
E380
7700
3E00
1C00
3E00
7700
E380
4100
ENDCHAR

STARTCHAR Oslash
ENCODING 216
SWIDTH 760 0
DWIDTH 14 0
BBX 13 14 1 -1
BITMAP
0798
1FF0
3CF0
70F0
71B8
E338
E638
E638
EC70
7870
79E0
7FC0
CF00
8000
ENDCHAR

STARTCHAR Uogonek
ENCODING 217
SWIDTH 740 0
DWIDTH 14 0
BBX 14 16 2 -3
BITMAP
FEFC
FEFC
3830
3830
3830
7060
7060
7060
E0C0
E0C0
E1C0
FF80
7E00
1800
1800
0E00
ENDCHAR

STARTCHAR Uacute
ENCODING 218
SWIDTH 740 0
DWIDTH 14 0
BBX 14 17 2 0
BITMAP
00E0
01C0
0300
0000
FEFC
FEFC
3830
3830
3830
7060
7060
7060
E0C0
E0C0
E1C0
FF80
7E00
ENDCHAR

STARTCHAR Ucircumflex
ENCODING 219
SWIDTH 740 0
DWIDTH 14 0
BBX 14 17 2 0
BITMAP
0180
03C0
0660
0000
FEFC
FEFC
3830
3830
3830
7060
7060
7060
E0C0
E0C0
E1C0
FF80
7E00
ENDCHAR

STARTCHAR Udieresis
ENCODING 220
SWIDTH 740 0
DWIDTH 14 0
BBX 14 17 2 0
BITMAP
0E70
0E70
0E70
0000
FEFC
FEFC
3830
3830
3830
7060
7060
7060
E0C0
E0C0
E1C0
FF80
7E00
ENDCHAR

STARTCHAR Utilde
ENCODING 221
SWIDTH 740 0
DWIDTH 14 0
BBX 14 17 2 0
BITMAP
0710
0FF0
08E0
0000
FEFC
FEFC
3830
3830
3830
7060
7060
7060
E0C0
E0C0
E1C0
FF80
7E00
ENDCHAR

STARTCHAR Umacron
ENCODING 222
SWIDTH 740 0
DWIDTH 14 0
BBX 14 16 2 0
BITMAP
0FE0
0FE0
0000
FEFC
FEFC
3830
3830
3830
7060
7060
7060
E0C0
E0C0
E1C0
FF80
7E00
ENDCHAR

STARTCHAR germandbls
ENCODING 223
SWIDTH 660 0
DWIDTH 13 0
BBX 15 18 -2 -4
BITMAP
0078
01FC
01CE
038E
039E
0FBC
0FB0
0778
073C
071E
070E
0ECE
0EFC
0E78
0E00
CC00
F800
F000
ENDCHAR

STARTCHAR amacron
ENCODING 224
SWIDTH 680 0
DWIDTH 13 0
BBX 13 13 1 0
BITMAP
07E0
07E0
0000
0000
0F60
3FE0
78E0
71C0
E1C0
E3C0
E7D0
FFF8
7CF0
ENDCHAR

STARTCHAR aacute
ENCODING 225
SWIDTH 680 0
DWIDTH 13 0
BBX 13 13 1 0
BITMAP
01C0
0380
0600
0000
0F60
3FE0
78E0
71C0
E1C0
E3C0
E7D0
FFF8
7CF0
ENDCHAR

STARTCHAR acircumflex
ENCODING 226
SWIDTH 680 0
DWIDTH 13 0
BBX 13 13 1 0
BITMAP
0180
03C0
0660
0000
0F60
3FE0
78E0
71C0
E1C0
E3C0
E7D0
FFF8
7CF0
ENDCHAR

STARTCHAR atilde
ENCODING 227
SWIDTH 680 0
DWIDTH 13 0
BBX 13 13 1 0
BITMAP
0388
07F8
0470
0000
0F60
3FE0
78E0
71C0
E1C0
E3C0
E7D0
FFF8
7CF0
ENDCHAR

STARTCHAR adieresis
ENCODING 228
SWIDTH 680 0
DWIDTH 13 0
BBX 13 13 1 0
BITMAP
0E70
0E70
0E70
0000
0F60
3FE0
78E0
71C0
E1C0
E3C0
E7D0
FFF8
7CF0
ENDCHAR

STARTCHAR aring
ENCODING 229
SWIDTH 680 0
DWIDTH 13 0
BBX 13 14 1 0
BITMAP
0380
06C0
06C0
0380
0000
0F60
3FE0
78E0
71C0
E1C0
E3C0
E7D0
FFF8
7CF0
ENDCHAR

STARTCHAR ae
ENCODING 230
SWIDTH 880 0
DWIDTH 17 0
BBX 16 9 1 0
BITMAP
1F3E
3FFF
71E7
01C6
3FFC
7FF8
E386
FFFE
7EF8
ENDCHAR

STARTCHAR iogonek
ENCODING 231
SWIDTH 380 0
DWIDTH 7 0
BBX 5 16 3 -3
BITMAP
38
38
38
00
18
F8
F0
70
70
E0
E8
F8
70
60
60
38
ENDCHAR

STARTCHAR ccaron
ENCODING 232
SWIDTH 560 0
DWIDTH 11 0
BBX 10 13 1 0
BITMAP
1980
0F00
0600
0000
0F00
3F80
79C0
F080
E000
E000
F180
7F80
3F00
ENDCHAR

STARTCHAR eacute
ENCODING 233
SWIDTH 560 0
DWIDTH 11 0
BBX 10 13 1 0
BITMAP
01C0
0380
0600
0000
0F80
3FC0
71C0
E3C0
FF80
FC00
E180
7F80
3F00
ENDCHAR

STARTCHAR eogonek
ENCODING 234
SWIDTH 560 0
DWIDTH 11 0
BBX 10 12 1 -3
BITMAP
0F80
3FC0
71C0
E3C0
FF80
FC00
E180
7F80
3F00
0600
0600
0380
ENDCHAR

STARTCHAR edieresis
ENCODING 235
SWIDTH 560 0
DWIDTH 11 0
BBX 10 13 1 0
BITMAP
39C0
39C0
39C0
0000
0F80
3FC0
71C0
E3C0
FF80
FC00
E180
7F80
3F00
ENDCHAR

STARTCHAR edotaccent
ENCODING 236
SWIDTH 560 0
DWIDTH 11 0
BBX 10 13 1 0
BITMAP
0700
0700
0700
0000
0F80
3FC0
71C0
E3C0
FF80
FC00
E180
7F80
3F00
ENDCHAR

STARTCHAR iacute
ENCODING 237
SWIDTH 380 0
DWIDTH 7 0
BBX 7 13 2 0
BITMAP
0E
1C
30
00
38
F8
F0
70
70
E0
E8
F8
70
ENDCHAR

STARTCHAR icircumflex
ENCODING 238
SWIDTH 380 0
DWIDTH 7 0
BBX 7 13 2 0
BITMAP
18
3C
66
00
38
F8
F0
70
70
E0
E8
F8
70
ENDCHAR

STARTCHAR imacron
ENCODING 239
SWIDTH 380 0
DWIDTH 7 0
BBX 7 13 2 0
BITMAP
7E
7E
00
00
38
F8
F0
70
70
E0
E8
F8
70
ENDCHAR

STARTCHAR dcroat
ENCODING 240
SWIDTH 680 0
DWIDTH 13 0
BBX 14 14 1 0
BITMAP
0038
01FC
01FC
0070
0070
0EE0
3FE0
78E0
70E0
F1C0
E3C0
E7D0
FDF8
78F0
ENDCHAR

STARTCHAR ncommaaccent
ENCODING 241
SWIDTH 680 0
DWIDTH 13 0
BBX 12 14 2 -5
BITMAP
3780
FFC0
F9C0
71C0
7180
E380
E3A0
E3F0
E1E0
0000
1C00
1C00
1800
3000
ENDCHAR

STARTCHAR omacron
ENCODING 242
SWIDTH 600 0
DWIDTH 11 0
BBX 10 12 1 0
BITMAP
0FC0
0FC0
0000
0F00
3F80
73C0
E1C0
E1C0
E1C0
F380
7F00
3C00
ENDCHAR

STARTCHAR kcommaaccent
ENCODING 243
SWIDTH 700 0
DWIDTH 13 0
BBX 13 19 1 -5
BITMAP
1C00
7C00
7800
3800
3800
38F0
73F8
7718
7F00
7F80
F380
E1D0
E1F8
E0F0
0000
0E00
0E00
0C00
1800
ENDCHAR

STARTCHAR ocircumflex
ENCODING 244
SWIDTH 600 0
DWIDTH 11 0
BBX 10 13 1 0
BITMAP
0600
0F00
1980
0000
0F00
3F80
73C0
E1C0
E1C0
E1C0
F380
7F00
3C00
ENDCHAR

STARTCHAR otilde
ENCODING 245
SWIDTH 600 0
DWIDTH 11 0
BBX 10 13 1 0
BITMAP
0E40
1FC0
1380
0000
0F00
3F80
73C0
E1C0
E1C0
E1C0
F380
7F00
3C00
ENDCHAR

STARTCHAR odieresis
ENCODING 246
SWIDTH 600 0
DWIDTH 11 0
BBX 11 13 1 0
BITMAP
1CE0
1CE0
1CE0
0000
0F00
3F80
73C0
E1C0
E1C0
E1C0
F380
7F00
3C00
ENDCHAR

STARTCHAR divide
ENCODING 247
SWIDTH 600 0
DWIDTH 11 0
BBX 10 8 2 2
BITMAP
0C00
0C00
0000
FFC0
FFC0
0000
0C00
0C00
ENDCHAR

STARTCHAR oslash
ENCODING 248
SWIDTH 600 0
DWIDTH 11 0
BBX 12 9 1 0
BITMAP
0FB0
3FE0
39E0
73E0
76E0
7CE0
79C0
7F80
CF00
ENDCHAR

STARTCHAR uogonek
ENCODING 249
SWIDTH 680 0
DWIDTH 13 0
BBX 12 12 2 -3
BITMAP
31C0
F1C0
F1C0
71C0
7380
E380
E3A0
FFF0
7DE0
00C0
00C0
0070
ENDCHAR

STARTCHAR uacute
ENCODING 250
SWIDTH 680 0
DWIDTH 13 0
BBX 12 13 2 0
BITMAP
0380
0700
0C00
0000
31C0
F1C0
F1C0
71C0
7380
E380
E3A0
FFF0
7DE0
ENDCHAR

STARTCHAR ucircumflex
ENCODING 251
SWIDTH 680 0
DWIDTH 13 0
BBX 12 13 2 0
BITMAP
0600
0F00
1980
0000
31C0
F1C0
F1C0
71C0
7380
E380
E3A0
FFF0
7DE0
ENDCHAR

STARTCHAR udieresis
ENCODING 252
SWIDTH 680 0
DWIDTH 13 0
BBX 12 13 2 0
BITMAP
39C0
39C0
39C0
0000
31C0
F1C0
F1C0
71C0
7380
E380
E3A0
FFF0
7DE0
ENDCHAR

STARTCHAR utilde
ENCODING 253
SWIDTH 680 0
DWIDTH 13 0
BBX 12 13 2 0
BITMAP
0E40
1FC0
1380
0000
31C0
F1C0
F1C0
71C0
7380
E380
E3A0
FFF0
7DE0
ENDCHAR

STARTCHAR umacron
ENCODING 254
SWIDTH 680 0
DWIDTH 13 0
BBX 12 13 2 0
BITMAP
1FC0
1FC0
0000
0000
31C0
F1C0
F1C0
71C0
7380
E380
E3A0
FFF0
7DE0
ENDCHAR

STARTCHAR dotaccent
ENCODING 255
SWIDTH 380 0
DWIDTH 7 0
BBX 3 3 4 11
BITMAP
E0
E0
E0
ENDCHAR
ENDFONT
